<?xml version="1.0" standalone="no"?>
<!DOCTYPE svg PUBLIC "-//W3C//DTD SVG 20010904//EN"
 "http://www.w3.org/TR/2001/REC-SVG-20010904/DTD/svg10.dtd">
<svg version="1.0" xmlns="http://www.w3.org/2000/svg"
 width="144.000000pt" height="144.000000pt" viewBox="0 0 144.000000 144.000000"
 preserveAspectRatio="xMidYMid meet">
<metadata>
Created by potrace 1.11, written by Peter Selinger 2001-2013
</metadata>
<g transform="translate(0.000000,144.000000) scale(0.100000,-0.100000)"
fill="#000000" stroke="none">
<path d="M20 760 l0 -290 700 0 700 0 0 290 0 290 -700 0 -700 0 0 -290z m435
50 c47 -47 9 -134 -59 -134 -61 0 -100 58 -74 112 26 53 90 63 133 22z m650 0
c47 -47 9 -134 -59 -134 -61 0 -100 58 -74 112 26 53 90 63 133 22z"/>
</g>
</svg>
